<svg xmlns="http://www.w3.org/2000/svg" width="650" height="400" aria-hidden="false" aria-label="Interactive chart" font-family="Roboto" font-size="12">
    <defs>
      <linearGradient id="lgrad-p" gradientTransform="rotate(75)">
        <stop offset="45%" stop-color="#4169e1"></stop>
        <stop offset="99%" stop-color="#c44764"></stop>
      </linearGradient>
    </defs>
    <!-- 배경화면 -->
    <rect fill="#fff" width="650" height="400" rx="0" ry="0" aria-hidden="true" />
    <!-- 가이드 라인 -->
    <g data-z-index="1" aria-hidden="true" fill="none" stroke="#e6e6e6">
        <path data-z-index="1" d="M43 325.5h597M43 48.5h597M43 256.5h597M43 187.5h597M43 118.5h597" />
    </g>
    <!-- 데이터 영역 -->
    <g data-z-index="3" aria-hidden="false">
        <!-- Item 1 그래프 선 및 영역 -->
        <g data-z-index=".1" transform="translate(43 49)">
            <!-- 영역 -->
            <path fill="url(#lgrad-p)" d="M49.75 63.48s59.7-22.08 99.5-22.08 59.7 151.8 99.5 151.8 59.7-33.672 99.5-60.72c39.8-27.048 59.7-74.52 99.5-74.52s99.5 179.4 99.5 179.4V276H49.75z" data-z-index="0" />
            <!-- 선 -->
            <path fill="none" d="M 49.75 63.48s59.7-22.08 99.5-22.08 59.7 151.8 99.5 151.8 59.7-33.672 99.5-60.72c39.8-27.048 59.7-74.52 99.5-74.52s99.5 179.4 99.5 179.4" data-z-index="1" stroke="#6f58e9" stroke-width="3" stroke-linejoin="round" stroke-linecap="round" />
        </g>
        <!-- Item 1 그래프 원 -->
        <g data-z-index=".1" style="outline:0" aria-hidden="false" tabindex="-1" aria-label="Item 1, series 1 of 2 with 6 data points." cursor="pointer" fill="#6f58e9">
            <path d="M391 191.48a10 10 0 11.01 0z" data-z-index="-1" fill-opacity=".25" />
            <path d="M92 116.48a4 4 0 11.004 0z" tabindex="-1" aria-label="Category 1, 77 units. Item 1." style="outline:0" />
            <path d="M192 94.4a4 4 0 11.004 0z" tabindex="-1" aria-label="Category 2, 85 units. Item 1." style="outline:0" />
            <path d="M291 246.2a4 4 0 11.004 0z" tabindex="-1" aria-label="Category 3, 30 units. Item 1." style="outline:0" />
            <path d="M391 187.48a6 6 0 11.006 0z" tabindex="-1" aria-label="Category 4, 52 units. Item 1." style="outline:0" stroke="#fff" />
            <path d="M490 110.96a4 4 0 11.004 0z" tabindex="-1" aria-label="Category 5, 79 units. Item 1." style="outline:0" />
            <path d="M590 290.36a4 4 0 11.004 0z" tabindex="-1" aria-label="Category 6, 14 units. Item 1." style="outline:0" />
        </g>
        <!-- Item 2 그래프 선 및 영역 -->
        <g data-z-index=".1" clip-path="url(#prefix__highcharts-0gi79yl-8-)" aria-hidden="true" transform="translate(43 49)">
            <path fill="rgba(148,209,61,0.35)" d="M49.75 107.64s59.7 93.84 99.5 93.84 59.7-23.184 99.5-57.96c39.8-34.776 59.7-115.92 99.5-115.92s59.7 160.08 99.5 160.08 99.5-154.56 99.5-154.56V276H49.75z" data-z-index="0" />
            <path fill="none" d="M49.75 107.64s59.7 93.84 99.5 93.84 59.7-23.184 99.5-57.96c39.8-34.776 59.7-115.92 99.5-115.92s59.7 160.08 99.5 160.08 99.5-154.56 99.5-154.56" data-z-index="1" stroke="#94d13d" stroke-width="2" stroke-linejoin="round" stroke-linecap="round" />
            <path fill="none" d="M49.75 107.64s59.7 93.84 99.5 93.84 59.7-23.184 99.5-57.96c39.8-34.776 59.7-115.92 99.5-115.92s59.7 160.08 99.5 160.08 99.5-154.56 99.5-154.56" data-z-index="2" stroke-linecap="round" stroke-linejoin="round" stroke="rgba(192,192,192,0.0001)" stroke-width="22" cursor="pointer" />
        </g>
        <!-- Item 2 그래프 서클 -->
        <g data-z-index=".1" style="outline:0" aria-hidden="false" tabindex="-1" aria-label="Item 2, series 2 of 2 with 6 data points." cursor="pointer" fill="#94d13d">
            <path d="M391 86.6a10 10 0 11.01 0z" data-z-index="-1" fill-opacity=".25" />
            <path d="M92 152.64l4 4-4 4-4-4z" tabindex="-1" aria-label="Category 1, 61 units. Item 2." style="outline:0" />
            <path d="M192 246.48l4 4-4 4-4-4z" tabindex="-1" aria-label="Category 2, 27 units. Item 2." style="outline:0" />
            <path d="M291 188.52l4 4-4 4-4-4z" tabindex="-1" aria-label="Category 3, 48 units. Item 2." style="outline:0" />
            <path d="M391 70.6l6 6-6 6-6-6z" tabindex="-1" aria-label="Category 4, 90 units. Item 2." style="outline:0" stroke="#fff" />
            <path d="M490 232.68l4 4-4 4-4-4z" tabindex="-1" aria-label="Category 5, 32 units. Item 2." style="outline:0" />
            <path d="M590 78.12l4 4-4 4-4-4z" tabindex="-1" aria-label="Category 6, 88 units. Item 2." style="outline:0" />
        </g>
    </g>


    <!-- 라벨 및 레전드 -->
    <g data-z-index="7" transform="translate(249 359)" aria-hidden="true">
        <rect fill="none" rx="0" ry="0" width="152" height="26" />
        <g data-z-index="1">
            <g data-z-index="1" transform="translate(8 3)"><text font-family="Roboto-Regular,Roboto" x="21" data-z-index="2" y="15" color="#333" cursor="pointer" font-weight="700" fill="#333">Item 1</text>
                <rect x="2" y="4" width="12" height="12" fill="#6f58e9" rx="6" ry="6" data-z-index="3" />
            </g>
            <g data-z-index="1" transform="translate(86.133 3)"><text font-family="Roboto-Regular,Roboto" x="21" y="15" data-z-index="2" color="#333" cursor="pointer" font-weight="700" fill="#333">Item 2</text>
                <rect x="2" y="4" width="12" height="12" fill="#94d13d" rx="6" ry="6" data-z-index="3" />
            </g>
        </g>
    </g>
    <g data-z-index="7" aria-hidden="true" font-family="Roboto-Regular,Roboto" text-anchor="middle" color="#666" cursor="default" font-size="11" fill="#666"><text x="92.75" y="344">Category 1</text><text x="192.25" y="344">Category 2</text><text x="291.75" y="344">Category 3</text><text x="391.25" y="344">Category 4</text><text x="490.75" y="344">Category 5</text><text x="590.25" y="344">Category 6</text></g>
    <g data-z-index="7" aria-hidden="true" font-family="Roboto-Regular,Roboto" text-anchor="end" color="#666" cursor="default" font-size="11" fill="#666"><text x="28" y="329">0</text><text x="28" y="53">100</text><text x="28" y="260">25</text><text x="28" y="191">50</text><text x="28" y="122">75</text></g>
</svg>